<svg xmlns="http://www.w3.org/2000/svg"
     xmlns:xlink="http://www.w3.org/1999/xlink"
     enable-background="new 0 0 117.64 110.41"
     height="512"
     viewBox="0 0 117.64 110.41"
     width="512" version="1.1">
        <g stroke="none"
           stroke-width="1"
           fill="none"
           fill-rule="evenodd">
    <path fill="#FFFFFF"
          d="M342,340.36v5.76H266.12v.24h-1.2v.24h-1v.24h-.72v.24h-.72v.24l-1.44.48V348l-1,.24-.24.48h-.48l-.72,1h-.48l-1,1.2-.48.24v.48l-.72.48v.48l-.48.24v.48l-.48.24V354h-.24l-.48,1.44h-.24l-.24,1.44h-.24v1h-.24v1.2h-.24v7.2h-5.52c-.06-3.72-.2-7.85.72-10.56l.24-1.68h.24v-.48h.24v-.72h.24l.48-1.44H250l.24-1,.48-.24v-.48l.48-.24V349l.72-.48V348h.24a4.3,4.3,0,0,0,1.2-1.68h.48c.7-1.19,1.76-1.65,2.88-2.4l.24-.48,1-.24.24-.48h.48v-.24h.48v-.24h.72V342l1-.24v-.24l1.68-.24v-.24h.72v-.24l3.36-.24v-.24H342Z"
          transform="translate(-247.6 -340.36)"/>
    <path fill="#FFFFFF"
          d="M342,349.48v5.76H271.88c-3.38,0-5.67-.22-7.68,1.2l-.72,1h-.24v.48l-.48.24c-1,1.69-.74,5.44-.72,8.16h-5.52c0-3.4-.34-7.43.72-9.84h.24l.24-1H258V355l.48-.24v-.48l1-.72v-.48h.24l.48-.72h.48l.72-1,1-.24.24-.48,3.6-1.2H342Z"
          transform="translate(-247.6 -340.36)"/>
    <path fill="#FFFFFF"
          d="M350.84,366h5.52v7.2h-.24v1h-.24l-.24,1.44h-.24l-.48,1.44h-.24l-.24.72L354,378v.48l-1.2,1-.48.72h-.48l-.48.72-1,.24v.24l-1.44.48v.24h-.72v.24h-1v.24H322.76V427h-5.52V377.08h21.6c3.3,0,7.34.39,9.36-1l.72-1,1-.72C351.12,372.59,350.86,369.13,350.84,366Z"
          transform="translate(-247.6 -340.36)"/>
    <path fill="#FFFFFF"
          d="M359.72,366h5.52v8.16H365v1.2h-.24v1.2h-.24v.72h-.24V378H364v.72a21.8,21.8,0,0,1-14.16,12.48h-1.2a21.07,21.07,0,0,1-5.76.48H331.64V427h-5.52V386h15.12c2.29,0,5.3.4,7.2-.24,6.4-2.15,9.37-5.83,11.28-12.48Z"
          transform="translate(-247.6 -340.36)"/>
    <path fill="#FFFFFF"
          d="M270.92,377.08h24.72v40.56c0,4.85-.83,13.22,1.2,16.08l1,.72v.24h.48l.24.48,1,.24v.24c1.41.61,5,.25,7,.24v5.76h-6.72c-2.81-.84-4.91-1.73-6.48-3.84l-1-.72v-.48l-.48-.24v-.48l-.48-.24c-1.93-3.14-1.2-10.84-1.2-15.84V382.6h-19.2Z"
          transform="translate(-247.6 -340.36)"/>
    <path fill="#FFFFFF"
          d="M270.92,386h15.84v33.6c0,5.69-.59,12.55,1.2,16.56h.24l.24,1h.24v.48l.48.24v.48l.48.24V439l1,.72v.48l1,.72v.24H292l.72,1,.72.24.24.48,1,.24v.24l1.44.48V444h.72v.24h.72v.24h1v.24h1.2V445h6.72v5.76c-3.9,0-7.49,0-10.32-1h-1v-.24l-1.2-.24v-.24h-.48v-.24l-1.2-.24-.24-.48-1.44-.48-.24-.48h-.48l-.48-.72h-.48L287,444.28l-1.44-1.2v-.48l-.72-.48v-.48l-.48-.24-.24-1-.48-.24-.24-1h-.24l-.24-1h-.24l-.24-1.44h-.24v-.72H282v-.72h-.24v-1h-.24V433h-.24V391.72H270.92Z"
          transform="translate(-247.6 -340.36)"/>
        </g>
</svg>