<svg version="1.0"
     xmlns="http://www.w3.org/2000/svg"
     width="256.000000pt"
     height="256.000000pt"
     viewBox="0 0 256.000000 256.000000"
     preserveAspectRatio="xMidYMid meet"
     fill="none">
    <path fill="black"
          transform="translate(0.000000,256.000000) scale(0.100000,-0.100000)"
          d="M1309 2452 c-43 -22 -59 -38 -81 -81 l-28 -54 2 -270 c3 -244 5 -271 21 -281 12 -8 22 -8 35 0 15 10 17 38 22 285 5 295 6 301 61 333 24 14 82 16 499 16 419 0 475 -2 500 -16 57 -34 60 -51 60 -300 0 -177 -3 -225 -12 -216 -15 15 -100 16 -116 0 -6 -6 -17 -38 -23 -71 -10 -47 -17 -60 -36 -68 -38 -14 -47 -11 -96 31 -25 22 -51 40 -59 40 -8 0 -42 -20 -76 -45 -71 -51 -74 -63 -38 -134 l25 -48 -22 -31 c-21 -30 -22 -30 -93 -25 l-71 6 -15 -39 c-9 -22 -21 -59 -28 -82 -14 -52 -8 -61 61 -99 45 -24 49 -29 49 -63 0 -34 -4 -39 -49 -63 -69 -38 -75 -47 -61 -99 7 -23 19 -60 28 -82 l15 -39 71 6 c71 5 72 5 93 -25 l22 -31 -25 -48 c-36 -71 -33 -83 38 -134 34 -25 68 -45 76 -45 7 0 36 19 63 41 44 38 52 41 81 33 30 -9 34 -15 46 -69 7 -32 18 -65 24 -72 13 -16 100 -17 116 -1 9 9 12 -30 12 -176 0 -206 -5 -227 -60 -260 -25 -14 -81 -16 -500 -16 -417 0 -475 2 -499 16 -54 32 -56 41 -61 293 -4 209 -7 235 -23 245 -12 8 -22 8 -35 0 -15 -10 -17 -35 -20 -241 l-2 -230 28 -54 c22 -43 38 -59 81 -81 l53 -28 478 0 478 0 53 28 c43 22 59 38 81 81 l28 53 0 1038 0 1038 -28 53 c-22 43 -38 59 -81 81 l-53 28 -478 0 -478 0 -53 -28z m1091 -793 c0 -143 -2 -160 -15 -149 -32 27 -144 -7 -212 -64 -69 -58 -108 -184 -84 -273 18 -66 70 -134 130 -170 61 -36 134 -52 163 -34 17 11 18 4 18 -151 0 -126 -3 -159 -12 -150 -7 7 -22 12 -34 12 -23 0 -27 7 -39 70 -10 49 -17 55 -95 80 l-69 22 -48 -40 c-38 -33 -50 -39 -65 -31 -29 16 -31 34 -9 78 12 22 21 47 21 56 0 14 -41 76 -80 123 -8 9 -29 11 -76 6 -35 -4 -64 -3 -64 2 0 5 -3 19 -6 31 -5 18 1 25 34 42 65 33 72 44 72 121 0 76 -7 88 -71 121 -42 21 -42 22 -32 58 6 22 9 23 69 17 45 -5 66 -3 74 6 39 47 80 109 80 123 0 9 -9 34 -21 56 -22 44 -20 62 9 78 15 8 27 2 65 -31 l48 -40 69 22 c78 25 85 31 95 80 12 64 16 70 40 70 13 0 27 5 30 10 3 6 8 10 11 10 2 0 4 -73 4 -161z m0 -420 c0 -176 -3 -219 -12 -212 -7 6 -33 13 -57 16 -93 12 -171 102 -171 197 0 97 80 187 174 197 26 3 49 10 52 14 3 5 7 9 10 9 2 0 4 -100 4 -221z"/>
    <path fill="black"
          transform="translate(0.000000,256.000000) scale(0.100000,-0.100000)"
          d="M1692 2308 c-6 -6 -12 -20 -12 -29 0 -34 24 -40 165 -37 119 3 139 5 149 21 8 12 8 22 0 35 -10 15 -31 17 -150 20 -100 2 -143 -1 -152 -10z"/>
    <path fill="black"
          transform="translate(0.000000,256.000000) scale(0.100000,-0.100000)"
          d="M92 2068 c-16 -16 -16 -200 0 -216 16 -16 200 -16 216 0 16 16 16 200 0 216 -8 8 -47 12 -108 12 -61 0 -100 -4 -108 -12z m148 -108 l0 -40 -40 0 -40 0 0 40 0 40 40 0 40 0 0 -40z"/>
    <path fill="black"
          transform="translate(0.000000,256.000000) scale(0.100000,-0.100000)"
          d="M242 1738 c-18 -18 -14 -56 7 -68 25 -13 27 -13 45 6 20 20 20 38 0 58 -19 19 -36 20 -52 4z"/>
    <path fill="black"
          transform="translate(0.000000,256.000000) scale(0.100000,-0.100000)"
          d="M834 1655 c-54 -27 -84 -60 -102 -114 -8 -23 -12 -124 -12 -306 l0 -273 28 -53 c22 -43 38 -59 81 -81 l53 -28 278 0 278 0 53 28 c43 22 59 38 81 81 l28 53 0 277 c0 275 0 277 -25 327 -27 54 -60 84 -114 102 -23 8 -124 12 -306 12 -269 0 -271 0 -321 -25z m626 -71 c58 -35 60 -46 60 -344 0 -385 25 -360 -360 -360 -385 0 -360 -25 -360 360 0 385 -26 359 358 360 236 0 278 -2 302 -16z"/>
    <path fill="black"
          transform="translate(0.000000,256.000000) scale(0.100000,-0.100000)"
          d="M1132 1428 c-8 -8 -12 -52 -12 -132 l0 -120 -33 32 c-18 18 -40 32 -48 32 -19 0 -39 -20 -39 -39 0 -20 140 -161 160 -161 20 0 160 141 160 161 0 19 -20 39 -39 39 -8 0 -30 -14 -48 -32 l-33 -32 0 120 c0 122 -6 144 -40 144 -9 0 -21 -5 -28 -12z"/>
    <path fill="black"
          transform="translate(0.000000,256.000000) scale(0.100000,-0.100000)"
          d="M317 1583 c-11 -11 -8 -48 5 -61 32 -32 79 2 60 43 -11 24 -49 35 -65 18z"/>
    <path fill="black"
          transform="translate(0.000000,256.000000) scale(0.100000,-0.100000)"
          d="M442 1458 c-29 -29 -2 -72 40 -66 30 4 38 46 12 65 -22 16 -37 16 -52 1z"/>
    <path fill="black"
          transform="translate(0.000000,256.000000) scale(0.100000,-0.100000)"
          d="M596 1374 c-19 -18 -19 -20 -6 -45 18 -32 80 -19 80 17 0 17 -28 44 -45 44 -7 0 -21 -7 -29 -16z"/>
    <path fill="black"
          transform="translate(0.000000,256.000000) scale(0.100000,-0.100000)"
          d="M590 1151 c-19 -36 14 -70 53 -55 22 8 31 42 17 59 -18 21 -57 18 -70 -4z"/>
    <path fill="black"
          transform="translate(0.000000,256.000000) scale(0.100000,-0.100000)"
          d="M442 1078 c-32 -32 1 -79 44 -59 35 16 31 65 -6 69 -14 2 -31 -3 -38 -10z"/>
    <path fill="black"
          transform="translate(0.000000,256.000000) scale(0.100000,-0.100000)"
          d="M320 956 c-20 -26 -8 -61 22 -64 35 -4 60 37 38 63 -16 19 -44 19 -60 1z"/>
    <path fill="black"
          transform="translate(0.000000,256.000000) scale(0.100000,-0.100000)"
          d="M248 809 c-31 -18 -17 -79 18 -79 17 0 44 28 44 45 0 14 -27 45 -38 45 -4 0 -15 -5 -24 -11z"/>
    <path fill="black"
          transform="translate(0.000000,256.000000) scale(0.100000,-0.100000)"
          d="M92 628 c-16 -16 -16 -200 0 -216 16 -16 200 -16 216 0 16 16 16 200 0 216 -16 16 -200 16 -216 0z m148 -108 l0 -40 -40 0 -40 0 0 40 0 40 40 0 40 0 0 -40z"/>
</svg>
