<?xml version="1.0"?>
<svg xmlns="http://www.w3.org/2000/svg" height="512px" viewBox="-22 0 511 512" width="512px" class=""><g><path d="m307.640625 425.390625-88.613281-32.226563-59.15625 32.226563-29.800782 38.976563 103.6875 27.777343 103.683594-27.777343zm0 0" fill="#ccc" data-original="#CCC" class="active-path" style="fill:#CCC"/><path d="m391.582031 464.367188h-315.652343c-11.03125 0-19.976563 8.941406-19.976563 19.976562s8.945313 19.980469 19.976563 19.980469h315.648437c11.035156 0 19.980469-8.945313 19.980469-19.980469s-8.945313-19.976562-19.976563-19.976562zm0 0" fill="#e6e6e6" data-original="#E6E6E6" class="" style="fill:#FFFFFF" data-old_color="#ffffff"/><path d="m412.582031 53.167969h-357.652343c-25.820313 0-46.75 20.933593-46.75 46.75v278.722656c0 25.816406 20.929687 46.75 46.75 46.75h357.652343c25.820313 0 46.75-20.933594 46.75-46.75v-278.722656c0-25.820313-20.929687-46.75-46.75-46.75zm0 0" fill="#e6e6e6" data-original="#E6E6E6" class="" style="fill:#FFFFFF" data-old_color="#ffffff"/><path d="m54.929688 365.539062c-10.546876 0-19.128907-8.578124-19.128907-19.125v-246.496093c0-10.546875 8.578125-19.128907 19.128907-19.128907h357.652343c10.546875 0 19.128907 8.582032 19.128907 19.128907v246.496093c0 10.546876-8.582032 19.125-19.128907 19.125zm0 0" fill="#f4c84d" data-original="#F4C84D" class="" style="fill:#67BF00" data-old_color="#67bf00"/><path d="m326.597656 140.535156v94.34375c0 52.105469-42.242187 94.347656-94.347656 94.347656s-94.34375-42.242187-94.34375-94.347656v-94.34375" fill="#e5baa8" data-original="#E5BAA8" class=""/><path d="m231.582031 329.222656c-25.792969-.175781-49.113281-10.699218-66.046875-27.628906-17.070312-17.078125-27.632812-40.660156-27.632812-66.714844v-94.347656h42.476562v94.347656c0 26.058594 5.804688 49.636719 15.191406 66.714844 9.242188 16.808594 21.953126 27.300781 36.011719 27.628906zm0 0" fill="#ce8d77" data-original="#CE8D77"/><path d="m366.5625 19.09375c-15.132812-.046875-27.417969 12.207031-27.417969 27.328125 0-15.09375-12.234375-27.328125-27.328125-27.328125s-27.328125 12.234375-27.328125 27.328125h-86.726562c-33.058594 0-59.859375 26.800781-59.859375 59.859375v75.773438c34.8125.746093 29.222656-41.523438 29.222656-41.523438h132.566406c51.660156 0 93.601563-41.625 94.105469-93.164062.148437-15.179688-12.054687-28.226563-27.234375-28.273438zm0 0" fill="#244f5e" data-original="#244F5E" class="" style="fill:#444444" data-old_color="#333333"/><g fill="#183f49"><path d="m318.332031 20c-2.230469-.589844-4.570312-.90625-6.984375-.90625-15.09375 0-27.332031 12.234375-27.332031 27.328125h13.972656c0-12.675781 8.636719-23.335937 20.34375-26.421875zm0 0" data-original="#000000" class="" style="fill:#333333" data-old_color="#000000"/><path d="m373.460938 20c-2.230469-.589844-4.574219-.90625-6.988282-.90625-15.09375 0-27.328125 12.234375-27.328125 27.328125h13.972657c0-12.675781 8.632812-23.335937 20.34375-26.421875zm0 0" data-original="#000000" class="" style="fill:#333333" data-old_color="#000000"/><path d="m197.761719 46.425781h23.953125c-33.054688 0-59.855469 26.800781-59.855469 59.855469v63.960938c-4.214844 6.839843-11.5 12.082031-23.957031 11.816406v-75.777344c0-33.058594 26.804687-59.855469 59.859375-59.855469zm0 0" data-original="#000000" class="" style="fill:#333333" data-old_color="#000000"/></g><path d="m137.90625 192.457031v58.375c0 8.976563-6.035156 16.542969-14.277344 18.851563-1.691406.484375-3.476562.738281-5.3125.738281h-7.617187c-10.816407 0-19.589844-8.769531-19.589844-19.589844v-58.375c0-10.820312 8.773437-19.589843 19.589844-19.589843h7.617187c1.839844 0 3.621094.253906 5.3125.734374 8.242188 2.308594 14.277344 9.875 14.277344 18.855469zm0 0" fill="#63a3ba" data-original="#63A3BA" class="" style="fill:#5BC0E4" data-old_color="#63A3BA"/><path d="m137.90625 192.457031v58.375c0 8.976563-6.035156 16.542969-14.277344 18.851563-8.242187-2.308594-14.277344-9.875-14.277344-18.851563v-58.375c0-8.980469 6.035157-16.546875 14.277344-18.855469 8.242188 2.308594 14.277344 9.875 14.277344 18.855469zm0 0" fill="#75b2cc" data-original="#75B2CC" class="" style="fill:#29A6D2" data-old_color="#29a6d2"/><path d="m373.394531 192.457031v58.375c0 8.976563-6.035156 16.542969-14.277343 18.851563-1.691407.484375-3.476563.738281-5.3125.738281h-7.617188c-10.816406 0-19.589844-8.769531-19.589844-19.589844v-58.375c0-10.820312 8.773438-19.589843 19.589844-19.589843h7.617188c1.839843 0 3.621093.253906 5.3125.734374 8.238281 2.308594 14.277343 9.875 14.277343 18.855469zm0 0" fill="#63a3ba" data-original="#63A3BA" class="" style="fill:#5BC0E4" data-old_color="#63A3BA"/><path d="m373.394531 192.457031v58.375c0 8.976563-6.035156 16.542969-14.277343 18.851563-8.242188-2.308594-14.277344-9.875-14.277344-18.851563v-58.375c0-8.980469 6.035156-16.546875 14.277344-18.855469 8.238281 2.308594 14.277343 9.875 14.277343 18.855469zm0 0" fill="#75b2cc" data-original="#75B2CC" class="" style="fill:#29A6D2" data-old_color="#29a6d2"/><path d="m296.6875 278.355469h5.550781c9.199219 0 16.65625 7.457031 16.65625 16.65625 0 9.195312-7.457031 16.652343-16.65625 16.652343h-5.550781c-9.199219 0-16.65625-7.457031-16.65625-16.652343 0-9.199219 7.457031-16.65625 16.65625-16.65625zm0 0" fill="#4d4d4d" data-original="#4D4D4D" class="" style="fill:#F98A4B" data-old_color="#f98a4b"/><path d="m412.582031 45.492188h-11.144531c-.40625-8.800782-4.125-17.335938-10.375-23.671876-6.597656-6.679687-15.289062-10.375-24.476562-10.402343-.039063 0-.074219 0-.113282 0-9.328125 0-18.101562 3.625-24.714844 10.214843-.933593.929688-1.808593 1.90625-2.625 2.921876-6.421874-8.003907-16.28125-13.136719-27.316406-13.136719-6.226562 0-12.078125 1.632812-17.152344 4.496093-19.054687-10.421874-40.527343-15.914062-62.414062-15.914062-39.476562 0-74.90625 17.660156-98.808594 45.492188h-78.515625c-30.007812 0-54.425781 24.414062-54.425781 54.425781v278.71875c0 30.011719 24.417969 54.429687 54.425781 54.429687h89.410157l-18.0625 23.621094h-50.34375c-15.25 0-27.65625 12.40625-27.65625 27.65625s12.40625 27.65625 27.65625 27.65625h52.003906c4.242187 0 7.679687-3.4375 7.679687-7.675781 0-4.242188-3.4375-7.679688-7.679687-7.679688h-52.003906c-6.78125 0-12.300782-5.519531-12.300782-12.300781s5.519532-12.300781 12.300782-12.300781h315.648437c6.785156 0 12.300781 5.519531 12.300781 12.300781s-5.515625 12.300781-12.300781 12.300781h-232.929687c-4.238282 0-7.675782 3.4375-7.675782 7.679688 0 4.238281 3.4375 7.675781 7.675782 7.675781h232.933593c15.246094 0 27.65625-12.40625 27.65625-27.65625s-12.410156-27.65625-27.65625-27.65625h-50.34375l-18.0625-23.621094h89.40625c30.011719 0 54.425781-24.417968 54.425781-54.429687v-278.71875c0-30.011719-24.414062-54.425781-54.425781-54.425781zm-266.976562 411.195312 18.0625-23.621094h140.179687l18.058594 23.621094zm185.863281-410.265625c0 4.242187 3.4375 7.679687 7.675781 7.679687 4.242188 0 7.679688-3.4375 7.679688-7.679687 0-5.257813 2.050781-10.203125 5.777343-13.914063 3.710938-3.703124 8.636719-5.738281 13.871094-5.738281h.0625c5.070313.015625 9.898438 2.089844 13.597656 5.839844 3.859376 3.910156 6.042969 9.261719 5.988282 14.683594-.222656 22.902343-9.316406 44.398437-25.597656 60.53125-16.289063 16.144531-37.894532 25.03125-60.832032 25.03125h-132.5625c-2.207031 0-4.304687.957031-5.761718 2.613281-1.457032 1.652344-2.132813 3.863281-1.855469 6.050781.636719 5 .769531 19.648438-6.140625 27.324219-2.050782 2.277344-4.625 3.84375-7.785156 4.714844l-.003907-67.277344c0-28.773438 23.410157-52.179688 52.183594-52.179688h86.722656c4.242188 0 7.675781-3.4375 7.675781-7.679687 0-10.835937 8.816407-19.652344 19.652344-19.652344 10.835938 0 19.652344 8.820313 19.652344 19.652344zm-6.144531 240.910156c-.636719-1.90625-1.503907-3.707031-2.566407-5.375 1.875-3.597656 3.535157-7.296875 4.960938-11.085937 4.859375 4.484375 11.347656 7.230468 18.464844 7.230468h.949218v4.023438c0 2.871094-2.339843 5.207031-5.210937 5.207031zm-177.484375-226.484375c-3.398438 3.726563-6.367188 7.84375-8.871094 12.261719h-6.363281c2.457031-4.269531 5.1875-8.359375 8.152343-12.261719zm-15.210938 27.617188c-1.554687 5.679687-2.402344 11.648437-2.402344 17.816406v61.652344c-3.601562-1.757813-7.640624-2.746094-11.910156-2.746094h-.945312v-34.953125c0-14.726563 2.792968-28.816406 7.863281-41.769531zm-21.929687 92.078125h7.617187c6.570313 0 11.914063 5.34375 11.914063 11.914062v58.375c0 6.570313-5.34375 11.914063-11.914063 11.914063h-7.617187c-6.566407 0-11.910157-5.34375-11.910157-11.914063v-58.375c0-6.570312 5.34375-11.914062 11.910157-11.914062zm34.882812 11.910156v-3.222656c7.8125-1.214844 14.273438-4.613281 19.253907-10.171875 8.285156-9.25 10.089843-22.300782 10.273437-30.847656h124.582031c6.523438 0 12.953125-.617188 19.226563-1.808594v88.480468c0 12.941407-2.894531 25.671876-8.410157 37.242188-2.582031-.933594-5.367187-1.449219-8.269531-1.449219h-5.554687c-13.414063 0-24.332032 10.917969-24.332032 24.335938 0 5.273437 1.691407 10.15625 4.554688 14.148437-13.441406 8.121094-28.699219 12.390625-44.65625 12.390625-23.148438 0-44.914062-9.015625-61.28125-25.386719-16.371094-16.367187-25.386719-38.132812-25.386719-61.28125zm151.105469 111.535156c-4.953125 0-8.980469-4.027343-8.980469-8.976562 0-4.953125 4.027344-8.980469 8.980469-8.980469h5.550781c4.949219 0 8.980469 4.027344 8.980469 8.980469 0 4.949219-4.03125 8.976562-8.980469 8.976562zm57.113281-41.242187h-7.613281c-6.570312 0-11.914062-5.34375-11.914062-11.914063v-58.378906c0-6.566406 5.34375-11.910156 11.914062-11.910156h7.613281c6.570313 0 11.914063 5.34375 11.914063 11.910156v58.378906c0 6.570313-5.34375 11.914063-11.914063 11.914063zm-6.671875-97.558594h-.941406c-4.269531 0-8.3125.992188-11.914062 2.746094v-25.726563c4.410156-1.589843 8.707031-3.488281 12.855468-5.679687zm-114.878906-149.832031c17.570312 0 34.828125 4.019531 50.449219 11.664062-2.351563 3.515625-4.085938 7.472657-5.042969 11.726563h-79.894531c-10.53125 0-20.507813 2.425781-29.398438 6.746094h-13.589843c20.441406-18.707032 47.648437-30.136719 77.476562-30.136719zm219.402344 363.28125c0 21.546875-17.527344 39.074219-39.070313 39.074219h-357.652343c-21.546876 0-39.074219-17.527344-39.074219-39.074219v-278.71875c0-21.542969 17.527343-39.070313 39.074219-39.070313h67.160156c-2.496094 3.949219-4.789063 8.042969-6.855469 12.261719h-60.304687c-14.785157 0-26.8125 12.027344-26.8125 26.808594v246.496093c0 14.777344 12.027343 26.796876 26.8125 26.796876h357.652343c14.78125 0 26.808594-12.019532 26.808594-26.796876v-179.9375c0-4.238281-3.4375-7.675781-7.679687-7.675781-4.238282 0-7.675782 3.4375-7.675782 7.675781v179.9375c0 6.308594-5.136718 11.445313-11.453125 11.445313h-357.652343c-6.316407 0-11.457032-5.136719-11.457032-11.445313v-246.496093c0-6.316407 5.140625-11.453125 11.457032-11.453125h53.957031c-4.453125 13.117187-6.871094 27.167968-6.871094 41.769531v36.378906c-10.789063 3.636719-18.582031 13.84375-18.582031 25.84375v58.375c0 15.035157 12.230468 27.269531 27.265625 27.269531h7.617187c7.101563 0 13.574219-2.730468 18.433594-7.195312 5.046875 13.398438 12.933594 25.6875 23.359375 36.117188 19.273437 19.269531 44.890625 29.878906 72.140625 29.878906 21.105469 0 41.191406-6.320313 58.355469-18.328125 1.945312.5 3.980469.769531 6.082031.769531h5.550781c10.734375 0 19.863281-6.992188 23.085938-16.65625h16.597656c11.339844 0 20.566406-9.226562 20.566406-20.566406v-5.449219c10.789063-3.632813 18.582031-13.839844 18.582031-25.839844v-58.375c0-12-7.792968-22.207031-18.582031-25.84375v-36.378906c0-1.214844-.023437-2.433594-.054687-3.648437 3.089844-2.429688 6.066406-5.046876 8.898437-7.851563 8.953125-8.871094 16.058594-19.117187 21.117188-30.269531h20.132812c6.316407 0 11.453125 5.136718 11.453125 11.453125v35.847656c0 4.242187 3.4375 7.679687 7.679688 7.679687 4.238281 0 7.675781-3.4375 7.675781-7.679687v-35.847656c0-14.78125-12.027344-26.808594-26.808594-26.808594h-14.625c1.082031-4.015625 1.921875-8.109375 2.507813-12.261719h12.117187c21.542969 0 39.070313 17.527344 39.070313 39.070313zm0 0" data-original="#000000" class="" style="fill:#333333" data-old_color="#000000"/><path d="m232.25 280.238281c10.511719 0 20.394531-4.09375 27.828125-11.523437 3-3 3-7.859375 0-10.859375-2.996094-2.996094-7.859375-2.996094-10.855469 0-4.535156 4.535156-10.5625 7.03125-16.972656 7.03125s-12.433594-2.496094-16.96875-7.03125c-2.996094-2.996094-7.859375-2.996094-10.855469 0-3 3-3 7.859375 0 10.859375 7.429688 7.429687 17.3125 11.523437 27.824219 11.523437zm0 0" data-original="#000000" class="" style="fill:#333333" data-old_color="#000000"/><path d="m274.023438 227.074219c4.242187 0 7.679687-3.4375 7.679687-7.675781v-21.3125c0-4.238282-3.4375-7.675782-7.679687-7.675782-4.238282 0-7.675782 3.4375-7.675782 7.675782v21.3125c0 4.238281 3.4375 7.675781 7.675782 7.675781zm0 0" data-original="#000000" class="" style="fill:#333333" data-old_color="#000000"/><path d="m190.476562 227.074219c4.238282 0 7.675782-3.4375 7.675782-7.675781v-21.3125c0-4.238282-3.4375-7.675782-7.675782-7.675782-4.238281 0-7.675781 3.4375-7.675781 7.675782v21.3125c0 4.238281 3.4375 7.675781 7.675781 7.675781zm0 0" data-original="#000000" class="" style="fill:#333333" data-old_color="#000000"/></g> </svg>
